<svg width="40" height="40" viewBox="0 0 40 40" fill="none" xmlns="http://www.w3.org/2000/svg">
<g clip-path="url(#clip0_66_10)">
<path d="M4.68801 0.152858C4.76975 0.152277 4.85149 0.151695 4.9357 0.151096C5.0253 0.150877 5.1149 0.150659 5.20721 0.150433C5.30165 0.149899 5.39609 0.149365 5.49339 0.148815C5.80663 0.147209 6.11987 0.146262 6.43311 0.145452C6.54004 0.14512 6.64697 0.144789 6.75714 0.144448C7.26478 0.142926 7.77242 0.141743 8.28006 0.141065C8.8651 0.140271 9.45011 0.138134 10.0351 0.134846C10.4879 0.13239 10.9406 0.13119 11.3934 0.130921C11.6636 0.130731 11.9337 0.129847 12.2038 0.127957C12.5056 0.125978 12.8073 0.126053 13.1091 0.126617C13.1979 0.125576 13.2867 0.124535 13.3781 0.123462C13.9881 0.127615 14.4143 0.228358 14.8969 0.620503C15.4907 1.33643 15.6069 1.96551 15.5961 2.88115C15.5962 2.98829 15.5962 3.09544 15.5963 3.20583C15.5963 3.49754 15.5944 3.78921 15.5921 4.08091C15.59 4.38653 15.5899 4.69216 15.5895 4.99779C15.5885 5.5756 15.5858 6.15339 15.5825 6.73119C15.5788 7.38939 15.577 8.0476 15.5753 8.70581C15.5719 10.0589 15.5661 11.412 15.5588 12.7651C15.6579 12.7644 15.6579 12.7644 15.7591 12.7637C16.0615 12.7619 16.364 12.7608 16.6665 12.7597C16.7705 12.759 16.8744 12.7583 16.9816 12.7575C17.7719 12.7554 18.491 12.8214 19.2598 13.009C19.3503 13.0308 19.4407 13.0526 19.5339 13.0751C20.1295 13.2194 20.7239 13.3678 21.3174 13.5204C23.4941 14.0317 25.8341 13.46 27.731 12.3587C28.1303 12.1078 28.5079 11.8311 28.8824 11.5457C28.9397 11.5033 28.9969 11.4609 29.0559 11.4171C29.5056 11.0634 29.8488 10.6109 30.1983 10.1638C30.2485 10.1011 30.2986 10.0384 30.3503 9.97387C31.4337 8.54444 32.0215 6.67665 32.0418 4.90454C32.0434 4.81728 32.045 4.73001 32.0466 4.64011C32.0515 4.36435 32.0553 4.08859 32.0591 3.81281C32.0623 3.62461 32.0655 3.43641 32.0688 3.24821C32.0768 2.78947 32.0833 2.33073 32.09 1.87196C31.4115 1.87196 30.7329 1.87196 30.0339 1.87196C30.0367 2.17659 30.0396 2.48121 30.0425 2.79507C30.0445 3.09319 30.046 3.3913 30.0474 3.68942C30.0486 3.89512 30.0503 4.10081 30.0525 4.3065C30.0555 4.60376 30.0569 4.901 30.0579 5.19827C30.0592 5.28884 30.0605 5.37941 30.0618 5.47272C30.0619 6.11716 29.9568 6.69731 29.7871 7.31854C29.7718 7.37727 29.7564 7.43599 29.7406 7.4965C29.2238 9.39014 27.8328 10.7535 26.1889 11.7693C25.4338 12.1904 24.4491 12.6053 23.5725 12.6229C23.4782 12.626 23.4782 12.626 23.382 12.6292C23.162 12.5956 23.0914 12.5344 22.9608 12.3587C22.941 12.0322 22.9736 11.8755 23.1815 11.6185C23.2973 11.4962 23.4138 11.3745 23.5307 11.2533C23.7949 10.9503 23.9542 10.6107 24.1122 10.2451C24.1558 10.1476 24.1558 10.1476 24.2003 10.0482C24.3729 9.57507 24.3706 9.103 24.3693 8.60691C24.3695 8.53361 24.3696 8.46032 24.3698 8.3848C24.3701 8.22618 24.3703 8.06757 24.3703 7.90895C24.3706 7.57088 24.3724 7.23281 24.374 6.89474C24.3772 6.26606 24.3797 5.63739 24.3796 5.0087C24.3795 4.57063 24.3814 4.13261 24.3846 3.69455C24.3855 3.52823 24.3856 3.36191 24.385 3.19559C24.3789 1.40817 24.3789 1.40817 25.0137 0.722223C25.5371 0.203562 26.1307 0.147192 26.8431 0.140981C26.9707 0.141092 26.9707 0.141092 27.1008 0.141205C27.2378 0.140386 27.2378 0.140386 27.3775 0.13955C27.6778 0.138012 27.9781 0.137688 28.2784 0.137513C28.488 0.13699 28.6975 0.136443 28.9071 0.135873C29.3456 0.134901 29.7842 0.134591 30.2228 0.134695C30.7285 0.134793 31.2342 0.133075 31.7398 0.130509C32.2281 0.128121 32.7163 0.127543 33.2045 0.12764C33.4115 0.127449 33.6185 0.126731 33.8254 0.125473C34.115 0.123876 34.4045 0.124348 34.694 0.125327C34.7791 0.124414 34.8641 0.1235 34.9517 0.122559C35.6014 0.128129 36.121 0.284568 36.5929 0.744029C37.167 1.37156 37.2373 2.07308 37.2298 2.88935C37.2302 2.98899 37.2306 3.08863 37.231 3.19129C37.2318 3.4658 37.2311 3.74023 37.2298 4.01473C37.2287 4.3116 37.2295 4.60847 37.2301 4.90533C37.2309 5.48624 37.23 6.06713 37.2284 6.64804C37.2267 7.3257 37.2267 8.00335 37.2268 8.68101C37.2269 9.89123 37.2254 11.1014 37.223 12.3116C37.2207 13.4834 37.2195 14.6552 37.2196 15.8271C37.2196 15.8991 37.2197 15.9712 37.2197 16.0455C37.2197 16.1175 37.2197 16.1895 37.2197 16.2636C37.2198 17.6006 37.2188 18.9375 37.2174 20.2745C37.2169 20.7457 37.2167 21.2169 37.2166 21.6881C37.2165 22.2636 37.2157 22.8391 37.2142 23.4146C37.2135 23.7077 37.213 24.0008 37.2132 24.2938C37.214 25.7527 37.1843 27.1688 36.8499 28.5968C36.8325 28.6711 36.8152 28.7454 36.7973 28.822C36.1648 31.3921 34.8142 33.5383 32.9947 35.4457C32.9347 35.5094 32.8747 35.5731 32.8128 35.6387C31.2229 37.2745 29.1377 38.3478 26.9908 39.0835C26.9096 39.1122 26.8284 39.1408 26.7447 39.1704C26.4457 39.2685 26.1445 39.352 25.8394 39.429C25.77 39.4467 25.7007 39.4644 25.6292 39.4827C23.9346 39.8969 22.2504 39.8987 20.5161 39.8884C20.1205 39.8861 19.725 39.8875 19.3294 39.8898C14.5094 39.914 10.2491 38.607 6.75342 35.2272C4.73691 33.2315 3.43606 30.5661 3.01236 27.7913C2.98825 27.641 2.96207 27.4911 2.9335 27.3416C2.81969 26.735 2.78675 26.1519 2.7877 25.5359C2.78721 25.4348 2.78672 25.3337 2.78622 25.2296C2.78505 24.9519 2.7846 24.6743 2.78448 24.3966C2.78417 24.096 2.78293 23.7954 2.78182 23.4949C2.7796 22.8392 2.7786 22.1835 2.77787 21.5278C2.77742 21.1179 2.77672 20.708 2.77598 20.2981C2.77398 19.1617 2.77228 18.0252 2.77172 16.8888C2.77169 16.8162 2.77165 16.7436 2.77162 16.6688C2.77158 16.5961 2.77154 16.5234 2.77151 16.4484C2.77143 16.3011 2.77136 16.1537 2.77129 16.0063C2.77125 15.9332 2.77121 15.8601 2.77118 15.7848C2.77053 14.5996 2.76765 13.4144 2.76383 12.2292C2.75992 11.0103 2.75787 9.79149 2.75768 8.57264C2.75753 7.88908 2.75659 7.20555 2.7536 6.522C2.75106 5.94023 2.75023 5.35849 2.75158 4.77671C2.75222 4.48022 2.75208 4.18377 2.74976 3.88728C2.74727 3.56513 2.74864 3.24306 2.75035 2.9209C2.74903 2.82825 2.7477 2.7356 2.74634 2.64014C2.75567 1.88722 2.97434 1.24472 3.5021 0.687634C3.88807 0.333446 4.15309 0.155472 4.68801 0.152858Z" fill="#FAFAFA"/>
<path d="M33.8993 1.79054C34.0843 1.78174 34.2694 1.77545 34.4545 1.77022C34.5575 1.76645 34.6606 1.76268 34.7668 1.75879C35.0508 1.79054 35.0508 1.79054 35.25 1.91486C35.4272 2.18923 35.4254 2.43293 35.4205 2.74827C35.4208 2.8102 35.421 2.87213 35.4212 2.93594C35.4213 3.1368 35.4187 3.3375 35.4157 3.53833C35.4152 3.60654 35.4147 3.67476 35.4141 3.74504C35.4059 4.76255 35.3598 5.75351 35.133 6.74937C35.1202 6.80736 35.1075 6.86535 35.0943 6.92509C35.0095 7.30382 34.9112 7.67688 34.804 8.05004C34.7815 8.12927 34.7591 8.20849 34.7359 8.29011C34.1079 10.3103 32.9737 12.0508 31.5142 13.5779C31.4571 13.6387 31.3999 13.6995 31.3411 13.7621C30.5509 14.5758 29.626 15.2186 28.6357 15.7728C28.5621 15.814 28.5621 15.814 28.4871 15.856C25.8666 17.2989 23.1161 17.3802 20.2467 16.7483C20.1249 16.7221 20.0032 16.6959 19.8814 16.6699C19.7021 16.6315 19.523 16.5922 19.3442 16.5514C16.5738 16.0285 13.7318 16.703 11.4047 18.2319C10.1808 19.0814 9.12047 20.131 8.32117 21.382C8.29142 21.4284 8.26167 21.4748 8.23102 21.5226C7.51717 22.6542 7.11252 23.8238 6.84077 25.1214C6.82643 25.186 6.81209 25.2506 6.79731 25.3172C6.38638 27.549 7.18885 29.871 8.42494 31.7204C8.74553 32.1773 9.12368 32.5769 9.51959 32.9704C9.62916 33.0801 9.73574 33.1927 9.84206 33.3056C11.7154 35.2573 14.6459 36.459 17.3456 36.5996C17.6789 36.6063 18.0118 36.6084 18.3451 36.6081C18.4687 36.6084 18.5923 36.6087 18.7159 36.6091C18.9737 36.6097 19.2314 36.6097 19.4891 36.6093C19.7498 36.6089 20.0105 36.6095 20.2712 36.6109C22.1616 36.6216 23.9622 36.5903 25.7571 35.9333C25.8136 35.9127 25.87 35.8922 25.9282 35.871C27.5422 35.2732 28.9429 34.4229 30.1983 33.2506C30.254 33.1999 30.3096 33.1492 30.367 33.0969C32.2945 31.2796 33.4767 28.5067 33.5784 25.8887C33.5822 25.647 33.5833 25.4055 33.5836 25.1639C33.584 25.0725 33.5844 24.9811 33.5848 24.8869C33.586 24.5862 33.5866 24.2856 33.5871 23.9849C33.5875 23.7754 33.588 23.5659 33.5885 23.3564C33.5892 22.9739 33.5897 22.5914 33.59 22.209C33.5904 21.6469 33.5918 21.0848 33.5942 20.5227C33.5962 20.0346 33.5968 19.5464 33.597 19.0583C33.5972 18.851 33.5979 18.6438 33.599 18.4365C33.6004 18.1471 33.6002 17.8578 33.5997 17.5685C33.6004 17.4828 33.6012 17.3971 33.602 17.3088C33.6021 16.7438 33.6021 16.7438 33.3236 16.2606C33.0424 16.0521 32.7602 16.0739 32.4189 16.098C32.2253 16.1528 32.2253 16.1528 32.0899 16.2606C32.0114 16.4936 31.9971 16.6395 31.9963 16.8814C31.9957 16.9975 31.9957 16.9975 31.995 17.1161C31.9949 17.2009 31.9948 17.2858 31.9947 17.3732C31.9943 17.4628 31.9939 17.5523 31.9935 17.6445C31.9926 17.8395 31.9919 18.0344 31.9913 18.2294C31.9903 18.5392 31.9887 18.849 31.9869 19.1589C31.9819 20.04 31.9774 20.9212 31.9747 21.8023C31.973 22.3413 31.97 22.8803 31.9664 23.4192C31.9652 23.6235 31.9645 23.8278 31.9643 24.0321C31.9598 27.1451 31.2819 29.7671 29.0469 32.0312C28.9753 32.1095 28.9753 32.1095 28.9023 32.1894C27.2694 33.9332 24.4985 34.8761 22.1454 34.967C21.8592 34.9725 21.5732 34.9754 21.2869 34.9771C21.1808 34.9778 21.0747 34.9785 20.9653 34.9791C20.7407 34.9803 20.516 34.9811 20.2913 34.9818C20.0648 34.9825 19.8384 34.9842 19.6119 34.9868C16.3015 35.024 13.5397 34.321 11.0353 32.1125C10.9802 32.0641 10.9252 32.0157 10.8685 31.9658C9.37026 30.5651 8.45888 28.5466 8.37593 26.5201C8.33201 24.3706 9.4873 22.3603 10.9222 20.8259C11.992 19.7309 13.2757 18.9381 14.7363 18.4554C14.7881 18.4381 14.8399 18.4208 14.8933 18.4029C16.7803 17.8058 18.9246 18.0397 20.795 18.5548C21.6328 18.748 22.4514 18.8109 23.3103 18.8314C23.4207 18.8345 23.5311 18.8377 23.6415 18.841C23.9081 18.8485 24.1746 18.8555 24.4412 18.8619C24.4488 19.5524 24.4547 20.2429 24.4582 20.9334C24.4599 21.2541 24.4622 21.5749 24.466 21.8956C24.4696 22.2061 24.4715 22.5165 24.4724 22.827C24.473 22.9445 24.4742 23.062 24.476 23.1795C24.4905 24.1706 24.367 25.123 23.8243 25.9801C23.7777 26.0556 23.731 26.1312 23.683 26.209C23.0542 27.1235 22.0151 27.8264 20.9213 28.0876C19.7247 28.2766 18.5997 28.1298 17.5789 27.4484C17.4524 27.3519 17.3272 27.2538 17.2036 27.1537C17.1455 27.1103 17.0874 27.0669 17.0276 27.0223C16.2953 26.4449 15.9168 25.6639 15.641 24.7962C15.6138 24.7158 15.5867 24.6353 15.5587 24.5524C15.5351 24.2276 15.5359 23.9024 15.533 23.5769C15.5306 23.4885 15.5282 23.4002 15.5258 23.3092C15.5169 22.1756 15.988 21.2002 16.7384 20.3509C17.0394 20.0489 17.3522 19.7652 17.6971 19.5122C17.6699 19.3781 17.6428 19.244 17.6148 19.1058C16.7245 19.1209 15.9779 19.295 15.1475 19.5935C15.0192 19.6388 15.0192 19.6388 14.8882 19.685C12.9559 20.4233 11.6161 21.7015 10.7772 23.5701C10.3659 24.5528 10.3141 25.5328 10.3773 26.5847C10.3846 26.7121 10.3846 26.7121 10.3921 26.8422C10.5358 28.0706 11.1648 29.292 11.9399 30.2428C11.9973 30.3142 12.0547 30.3855 12.1138 30.4591C13.6306 32.2324 15.9739 33.1881 18.2728 33.4132C18.5089 33.4253 18.7445 33.4284 18.9809 33.4297C19.0467 33.4303 19.1126 33.4309 19.1804 33.4315C19.3919 33.4329 19.6034 33.4334 19.8149 33.4335C19.887 33.4336 19.9591 33.4336 20.0333 33.4337C21.0793 33.4324 22.1041 33.4175 23.1253 33.1693C23.1815 33.1558 23.2377 33.1423 23.2957 33.1284C25.4359 32.589 27.4111 31.3421 28.5598 29.4461C29.5488 27.7385 29.7338 25.9372 29.6947 24.0041C29.6861 23.5278 29.6836 23.0514 29.6803 22.575C29.6758 21.9719 29.6695 21.3691 29.6555 20.7661C29.6443 20.2756 29.6399 19.7854 29.6401 19.2948C29.6389 19.109 29.6353 18.9233 29.6291 18.7377C29.5835 17.3295 29.5835 17.3295 29.9217 16.9042C30.2493 16.6067 30.6147 16.3993 31.0076 16.1979C31.2978 16.0347 31.5427 15.8232 31.7918 15.6051C31.8411 15.5623 31.8904 15.5195 31.9412 15.4754C33.3153 14.2745 34.2824 12.9406 35.1947 11.3808C35.2286 11.3279 35.2625 11.275 35.2975 11.2204C35.3246 11.2204 35.3518 11.2204 35.3797 11.2204C35.3894 13.2204 35.3966 15.2203 35.401 17.2203C35.4032 18.1491 35.406 19.0779 35.4108 20.0067C35.4149 20.8172 35.4175 21.6277 35.4184 22.4382C35.419 22.8665 35.4202 23.2948 35.4232 23.7231C35.45 27.663 34.7682 31.1789 31.8933 34.1241C29.2157 36.8002 25.5864 38.1153 21.8127 38.1436C21.7023 38.144 21.592 38.1444 21.4816 38.1447C21.4242 38.1449 21.3668 38.1451 21.3076 38.1454C21.003 38.1466 20.6983 38.1473 20.3937 38.1477C20.1467 38.148 19.8996 38.1492 19.6526 38.151C17.7074 38.1654 15.7895 38.1301 13.9207 37.5326C13.7524 37.4788 13.5833 37.4281 13.4139 37.3775C11.4783 36.774 9.77973 35.6874 8.32117 34.3074C8.24468 34.2367 8.24468 34.2367 8.16664 34.1645C6.7806 32.8467 5.83428 31.1236 5.19587 29.3486C5.15166 29.2357 5.15166 29.2357 5.10655 29.1206C4.91934 28.6184 4.80958 28.1174 4.72296 27.5907C4.71245 27.5276 4.70194 27.4646 4.69111 27.3996C4.57043 26.6045 4.62088 25.8657 4.75894 25.0757C4.78133 24.9473 4.78133 24.9473 4.80418 24.8163C5.106 23.1538 5.68179 21.5503 6.67628 20.1626C6.73692 20.0737 6.79756 19.9849 6.86004 19.8933C8.39652 17.6687 10.5556 16.0151 13.0914 15.0412C13.1693 15.0104 13.2472 14.9796 13.3275 14.9478C15.4313 14.1807 17.8609 14.3199 19.9749 14.9615C22.8804 15.8135 25.7609 15.3619 28.4011 13.983C29.1359 13.5823 29.7995 13.0905 30.3843 12.4944C30.6095 12.2772 30.6095 12.2772 30.774 12.2772C30.7944 12.2307 30.8147 12.1842 30.8357 12.1362C30.9544 11.9236 31.0956 11.7801 31.2675 11.6066C32.3831 10.3976 33.1397 8.82627 33.4881 7.23712C33.5086 7.14423 33.5086 7.14423 33.5295 7.04945C33.7846 5.86348 33.8702 4.71821 33.8788 3.50784C33.8811 3.33975 33.8836 3.17166 33.8862 3.00358C33.8921 2.59924 33.8963 2.19492 33.8993 1.79054Z" fill="#030303"/>
<path d="M5.15061 1.84015C5.22032 1.8412 5.29003 1.84225 5.36185 1.84333C5.43431 1.84605 5.50677 1.84878 5.58143 1.85158C5.65485 1.85305 5.72827 1.85452 5.80391 1.85603C5.98514 1.85986 6.1662 1.86521 6.34734 1.87191C6.34754 1.93765 6.34773 2.0034 6.34793 2.07114C6.3528 3.67098 6.35901 5.27082 6.36673 6.87065C6.37042 7.64432 6.37367 8.41799 6.37583 9.19166C6.37772 9.86601 6.38047 10.5403 6.38424 11.2147C6.38621 11.5717 6.38775 11.9288 6.38827 12.2858C6.38876 12.622 6.39041 12.9581 6.39293 13.2943C6.39365 13.4175 6.39395 13.5408 6.39381 13.6641C6.39367 13.8327 6.39505 14.0012 6.39679 14.1698C6.39717 14.2641 6.39755 14.3583 6.39794 14.4555C6.43418 14.7539 6.51756 14.9485 6.67632 15.2038C6.98073 15.4044 7.13872 15.3914 7.49877 15.3664C7.76378 15.2937 7.81579 15.2237 7.95806 14.9871C8.08519 14.6912 8.10599 14.4899 8.10728 14.1698C8.10782 14.1169 8.10837 14.0641 8.10893 14.0096C8.11046 13.8336 8.11025 13.6577 8.11004 13.4817C8.11078 13.355 8.11163 13.2284 8.11258 13.1018C8.11485 12.7589 8.11561 12.416 8.11611 12.073C8.11688 11.7143 8.11903 11.3556 8.12104 10.997C8.12463 10.3181 8.12698 9.63925 8.12888 8.96038C8.13111 8.18737 8.13472 7.41436 8.13845 6.64135C8.14608 5.05154 8.15193 3.46173 8.15673 1.87191C8.83525 1.87191 9.51377 1.87191 10.2128 1.87191C10.23 3.51694 10.2432 5.16195 10.2512 6.80706C10.255 7.57091 10.2602 8.33472 10.2687 9.09854C10.2761 9.76431 10.2808 10.43 10.2825 11.0958C10.2835 11.4484 10.2857 11.8008 10.2911 12.1533C10.2961 12.4853 10.2977 12.817 10.2966 13.149C10.2968 13.2707 10.2982 13.3924 10.3011 13.5141C10.3215 14.4344 10.3215 14.4344 10.0509 14.731C9.86265 14.8566 9.6799 14.9506 9.47265 15.0412C8.9284 15.4116 8.42293 15.8052 7.93762 16.2486C7.76574 16.4048 7.58999 16.554 7.41138 16.7027C6.36831 17.6081 5.52813 18.7721 4.84043 19.9577C4.76878 20.0813 4.69475 20.2034 4.6202 20.3252C4.59306 20.3252 4.56592 20.3252 4.53795 20.3252C4.53219 17.9672 4.52784 15.6092 4.52517 13.2512C4.52492 13.0335 4.52466 12.8157 4.5244 12.5979C4.52433 12.5438 4.52427 12.4897 4.5242 12.4339C4.52313 11.557 4.52118 10.6801 4.51892 9.80326C4.51661 8.90376 4.51526 8.00425 4.51474 7.10475C4.51442 6.5994 4.51366 6.09406 4.51187 5.58872C4.51019 5.11338 4.50967 4.63806 4.51004 4.16272C4.50998 3.98798 4.50948 3.81325 4.50854 3.63851C4.50732 3.40046 4.50761 3.16245 4.50828 2.92439C4.50756 2.85481 4.50684 2.78522 4.5061 2.71352C4.50818 2.44432 4.51923 2.23477 4.6403 1.99102C4.82308 1.84023 4.91449 1.83389 5.15061 1.84015Z" fill="#030303"/>
<path d="M27.9777 18.0491C27.9854 19.0759 27.9912 20.1028 27.9948 21.1296C27.9965 21.6066 27.9988 22.0835 28.0025 22.5604C28.0061 23.0216 28.0081 23.4828 28.0089 23.9441C28.0095 24.1191 28.0107 24.294 28.0125 24.469C28.0295 26.2038 27.7819 27.7825 26.6618 29.1861C26.6128 29.2479 26.5638 29.3098 26.5134 29.3735C25.5901 30.4678 24.2043 31.2406 22.7963 31.5436C22.7037 31.566 22.6112 31.5884 22.5158 31.6115C20.0557 32.1459 17.1321 31.9413 14.9644 30.6338C13.5604 29.7288 12.4775 28.4878 12.0839 26.849C11.8626 25.5763 12.0936 24.3198 12.8447 23.2518C12.9945 23.0649 13.1511 22.8854 13.3124 22.7081C13.3711 22.6435 13.3711 22.6435 13.431 22.5776C13.5317 22.4719 13.6401 22.3734 13.7494 22.2763C13.8308 22.2763 13.9122 22.2763 13.9961 22.2763C13.9695 22.3539 13.9429 22.4316 13.9155 22.5116C13.8081 22.885 13.8033 23.2466 13.8059 23.6328C13.8063 23.7048 13.8067 23.7768 13.8071 23.851C13.8346 25.373 14.5322 26.9075 15.588 28.0115C16.8979 29.2106 18.4848 29.8429 20.275 29.7812C21.1763 29.7302 21.9987 29.5292 22.7963 29.1048C22.8654 29.0689 22.9345 29.0329 23.0058 28.9959C24.6249 28.0988 25.4979 26.6755 26.0038 24.9589C26.0864 24.6212 26.0988 24.3011 26.103 23.9541C26.1038 23.8954 26.1046 23.8366 26.1054 23.7761C26.108 23.583 26.1101 23.3899 26.1121 23.1968C26.1138 23.0625 26.1155 22.9283 26.1173 22.794C26.1218 22.4413 26.1259 22.0886 26.1299 21.7359C26.134 21.3757 26.1386 21.0155 26.1431 20.6553C26.1519 19.9492 26.1603 19.243 26.1683 18.5368C26.2192 18.5201 26.27 18.5034 26.3224 18.4862C26.3891 18.4643 26.4558 18.4423 26.5245 18.4197C26.5906 18.398 26.6568 18.3762 26.7249 18.3538C26.8607 18.3088 26.996 18.2626 27.1312 18.2158C27.1883 18.196 27.2455 18.1762 27.3043 18.1558C27.3625 18.1353 27.4207 18.1149 27.4807 18.0938C27.6487 18.0491 27.6487 18.0491 27.9777 18.0491Z" fill="#030303"/>
<path d="M12.0222 1.87183C12.5379 1.87183 13.0536 1.87183 13.5849 1.87183C13.8316 2.1157 13.8316 2.1157 13.862 2.3171C13.8616 2.43816 13.8616 2.43816 13.8613 2.56166C13.8616 2.65434 13.862 2.74701 13.8623 2.8425C13.8614 2.94424 13.8605 3.04598 13.8596 3.15081C13.8597 3.31142 13.8597 3.31142 13.8597 3.47528C13.8598 3.76903 13.8583 4.06275 13.8566 4.35649C13.8551 4.66342 13.8549 4.97035 13.8546 5.27728C13.8539 5.85856 13.8518 6.43983 13.8494 7.0211C13.8466 7.68283 13.8453 8.34456 13.844 9.0063C13.8414 10.3676 13.8371 11.7289 13.8316 13.0902C13.6977 13.1313 13.6977 13.1313 13.5611 13.1734C13.4422 13.21 13.3234 13.2466 13.2045 13.2832C13.1459 13.3012 13.0872 13.3193 13.0268 13.3378C12.9402 13.3646 12.9402 13.3646 12.8517 13.3918C12.7729 13.4161 12.7729 13.4161 12.6925 13.4408C12.4684 13.5115 12.2454 13.5857 12.0222 13.6592C12.0222 9.76937 12.0222 5.87953 12.0222 1.87183Z" fill="#050505"/>
<path d="M26.9253 1.75877C27.0058 1.75981 27.0864 1.76086 27.1694 1.76194C27.253 1.76467 27.3365 1.76739 27.4226 1.7702C27.5074 1.77167 27.5922 1.77313 27.6796 1.77464C27.8887 1.77847 28.0977 1.78382 28.3067 1.79052C28.3152 2.38029 28.3209 2.97004 28.3248 3.55986C28.3264 3.75995 28.3287 3.96003 28.3316 4.1601C28.3606 6.23872 28.1068 7.76667 26.622 9.31609C26.1592 9.75716 26.1592 9.75716 25.9216 9.75716C25.9483 9.65524 25.975 9.55332 26.0025 9.4483C26.1252 8.83761 26.1092 8.22366 26.1087 7.60361C26.1086 7.37875 26.1097 7.15392 26.1111 6.92907C26.1149 6.29039 26.1169 5.65172 26.1174 5.01304C26.1179 4.62098 26.1198 4.22897 26.1228 3.83692C26.1236 3.6879 26.1238 3.53887 26.1234 3.38984C26.1228 3.18204 26.1242 2.97434 26.1261 2.76654C26.1254 2.70514 26.1247 2.64373 26.124 2.58047C26.1284 2.30667 26.1499 2.14217 26.3088 1.91441C26.5352 1.76568 26.6553 1.75256 26.9253 1.75877Z" fill="#060606"/>
</g>
<defs>
<clipPath id="clip0_66_10">
<rect width="35" height="40" fill="white" transform="translate(2.5)"/>
</clipPath>
</defs>
</svg>
